<svg xmlns="http://www.w3.org/2000/svg" width="512" height="512" viewBox="0 0 64 64">
  <!-- Source for icon-maskable-512.png (manifest purpose "maskable"). Full-bleed
       dark surface to the edges (no rounding, no transparency — the launcher
       supplies the mask) with the bow scaled to ~0.82 about centre so it stays
       inside the 80% safe zone under any circle/squircle crop. Flexoki dark
       identity (DESIGN.md § Mark). Regenerate every raster with
       scripts/render-icons.sh (the recipe can't live in this comment: XML
       comments may not contain double hyphens). -->
  <defs>
    <linearGradient id="wl" gradientUnits="userSpaceOnUse" x1="10" y1="30" x2="28" y2="34">
      <stop offset="0" stop-color="#da702c"/><stop offset="0.55" stop-color="#da702c"/><stop offset="1" stop-color="#bc5215"/>
    </linearGradient>
    <linearGradient id="wr" gradientUnits="userSpaceOnUse" x1="54" y1="30" x2="36" y2="34">
      <stop offset="0" stop-color="#da702c"/><stop offset="0.55" stop-color="#da702c"/><stop offset="1" stop-color="#bc5215"/>
    </linearGradient>
    <linearGradient id="bg" gradientUnits="userSpaceOnUse" x1="32" y1="0" x2="32" y2="64">
      <stop offset="0" stop-color="#1c1b1a"/><stop offset="1" stop-color="#100f0f"/>
    </linearGradient>
    <filter id="cs" x="-40%" y="-40%" width="180%" height="180%"><feGaussianBlur stdDeviation="1"/></filter>
  </defs>
  <rect width="64" height="64" fill="url(#bg)"/>
  <g transform="translate(32 32) scale(0.82) translate(-32 -32)">
    <g filter="url(#cs)" opacity="0.3" transform="translate(0 1.3)">
      <path d="M28 28.2 C21.8 25 15.8 22 13 20.9 Q10 19.6 10 22.8 L10 25.4 C10.3 28.2 12.2 30.6 14.7 32 C12.2 33.4 10.3 35.8 10 38.6 L10 41.2 Q10 44.4 13 43.1 C15.8 42 21.8 39 28 35.8 Z" fill="#000"/>
      <path d="M36 28.2 C42.2 25 48.2 22 51 20.9 Q54 19.6 54 22.8 L54 25.4 C53.7 28.2 51.8 30.6 49.3 32 C51.8 33.4 53.7 35.8 54 38.6 L54 41.2 Q54 44.4 51 43.1 C48.2 42 42.2 39 36 35.8 Z" fill="#000"/>
      <path d="M28.7 24 L35.3 24 Q38.5 24 38.35 27.2 C37.6 29.3 37.6 34.7 38.35 36.8 Q38.5 40 35.3 40 L28.7 40 Q25.5 40 25.65 36.8 C26.4 34.7 26.4 29.3 25.65 27.2 Q25.5 24 28.7 24 Z" fill="#000"/>
    </g>
    <path d="M28 28.2 C21.8 25 15.8 22 13 20.9 Q10 19.6 10 22.8 L10 25.4 C10.3 28.2 12.2 30.6 14.7 32 C12.2 33.4 10.3 35.8 10 38.6 L10 41.2 Q10 44.4 13 43.1 C15.8 42 21.8 39 28 35.8 Z" fill="url(#wl)"/>
    <path d="M36 28.2 C42.2 25 48.2 22 51 20.9 Q54 19.6 54 22.8 L54 25.4 C53.7 28.2 51.8 30.6 49.3 32 C51.8 33.4 53.7 35.8 54 38.6 L54 41.2 Q54 44.4 51 43.1 C48.2 42 42.2 39 36 35.8 Z" fill="url(#wr)"/>
    <g fill="none" stroke="#000" stroke-opacity="0.14" stroke-width="1" stroke-linecap="round">
      <path d="M26.5 29.3 C22.5 27.6 18.5 26 15.5 24.8"/>
      <path d="M26.5 34.7 C22.5 36.4 18.5 38 15.5 39.2"/>
      <path d="M37.5 29.3 C41.5 27.6 45.5 26 48.5 24.8"/>
      <path d="M37.5 34.7 C41.5 36.4 45.5 38 48.5 39.2"/>
    </g>
    <path d="M28.7 24 L35.3 24 Q38.5 24 38.35 27.2 C37.6 29.3 37.6 34.7 38.35 36.8 Q38.5 40 35.3 40 L28.7 40 Q25.5 40 25.65 36.8 C26.4 34.7 26.4 29.3 25.65 27.2 Q25.5 24 28.7 24 Z" fill="#cecdc3"/>
  </g>
</svg>
