<svg xmlns="http://www.w3.org/2000/svg" width="512" height="512" viewBox="0 0 64 64">
  <!-- Source for icon-maskable-512.png (manifest purpose "maskable"). Full-bleed
       dark surface to the edges (no rounding, no transparency — the launcher
       supplies the mask) with the bow scaled to ~0.82 about centre so it stays
       inside the 80% safe zone under any circle/squircle crop. Regenerate:

    CHROME="/Applications/Google Chrome.app/Contents/MacOS/Google Chrome"
    printf '<img src="scripts/icon-maskable.svg" width="512" height="512">' > /tmp/m.html
    "$CHROME" --headless --disable-gpu --hide-scrollbars --force-device-scale-factor=1 \
      --window-size=512,512 --screenshot=apps/web/public/icon-maskable-512.png "file:///tmp/m.html"
  -->
  <defs>
    <linearGradient id="wl" gradientUnits="userSpaceOnUse" x1="10" y1="30" x2="28" y2="34">
      <stop offset="0" stop-color="#fe8019"/><stop offset="0.55" stop-color="#fe8019"/><stop offset="1" stop-color="#d65d0e"/>
    </linearGradient>
    <linearGradient id="wr" gradientUnits="userSpaceOnUse" x1="54" y1="30" x2="36" y2="34">
      <stop offset="0" stop-color="#fe8019"/><stop offset="0.55" stop-color="#fe8019"/><stop offset="1" stop-color="#d65d0e"/>
    </linearGradient>
    <linearGradient id="bg" gradientUnits="userSpaceOnUse" x1="32" y1="0" x2="32" y2="64">
      <stop offset="0" stop-color="#282828"/><stop offset="1" stop-color="#1d2021"/>
    </linearGradient>
    <filter id="cs" x="-40%" y="-40%" width="180%" height="180%"><feGaussianBlur stdDeviation="1"/></filter>
  </defs>
  <rect width="64" height="64" fill="url(#bg)"/>
  <g transform="translate(32 32) scale(0.82) translate(-32 -32)">
    <g filter="url(#cs)" opacity="0.3" transform="translate(0 1.3)">
      <path d="M10 21.5 Q10 19 12.5 20 L28 28.5 L28 35.5 L12.5 44 Q10 45 10 42.5 Z" fill="#000"/>
      <path d="M54 21.5 Q54 19 51.5 20 L36 28.5 L36 35.5 L51.5 44 Q54 45 54 42.5 Z" fill="#000"/>
      <rect x="25.5" y="24" width="13" height="16" rx="4" fill="#000"/>
    </g>
    <path d="M10 21.5 Q10 19 12.5 20 L28 28.5 L28 35.5 L12.5 44 Q10 45 10 42.5 Z" fill="url(#wl)"/>
    <path d="M54 21.5 Q54 19 51.5 20 L36 28.5 L36 35.5 L51.5 44 Q54 45 54 42.5 Z" fill="url(#wr)"/>
    <rect x="25.5" y="24" width="13" height="16" rx="4" fill="#ebdbb2"/>
  </g>
</svg>
